<svg width="153" height="87" viewBox="0 0 153 87" fill="none" xmlns="http://www.w3.org/2000/svg"><path d="M137.967 48.03a1.257 1.257 0 00-1.073-.527l-1.2.045a90.454 90.454 0 009.987-4.416 481.03 481.03 0 01-8.622 11.813l1.516-5.39c.202-.718-.125-1.249-.608-1.526zM61.132 29.414c9.505 2.493 5.272 13.4-1.583 15.924-4.411 1.623-9.723 1.137-14.205.218-.771-8.929 5.92-18.73 15.788-16.142zm88.479 8.31c-7.956 4.767-16.342 8.177-25.286 10.298-1.545.367-1.221 2.871.356 2.813 2.803-.109 5.603-.215 8.404-.322-11.252 9.674-25.5 14.139-40.021 15.091-14.952.983-38.083.764-46.148-14.536a13.604 13.604 0 01-1.01-2.515c6.412 1.194 13.898 1.25 19.109-3.114 4.26-3.568 6.406-10.235 2.843-14.99-9.191-12.278-26.441 1.962-25.64 14.348-14.59-4.142-26.105-15.84-31.342-30.35-.362-1.005-1.9-.61-1.606.462 4.445 16.18 17.504 28.852 33.392 32.912 3.653 16.99 25.293 20.204 39.6 20.775 18.632.748 37.93-3.34 52.525-15.83l-2.361 8.397c-.361 1.281 1.414 2.527 2.313 1.37a492.99 492.99 0 0016.756-22.86c.837-1.214-.736-2.637-1.884-1.949z" fill="#8DD9E5"/><path d="M137.967 48.03a1.257 1.257 0 00-1.073-.527l-1.2.045a90.454 90.454 0 009.987-4.416 481.03 481.03 0 01-8.622 11.813l1.516-5.39c.202-.718-.125-1.249-.608-1.526zM61.132 29.414c9.505 2.493 5.272 13.4-1.583 15.924-4.411 1.623-9.723 1.137-14.205.218-.771-8.929 5.92-18.73 15.788-16.142zm88.479 8.31c-7.956 4.767-16.342 8.177-25.286 10.298-1.545.367-1.221 2.871.356 2.813 2.803-.109 5.603-.215 8.404-.322-11.252 9.674-25.5 14.139-40.021 15.091-14.952.983-38.083.764-46.148-14.536a13.604 13.604 0 01-1.01-2.515c6.412 1.194 13.898 1.25 19.109-3.114 4.26-3.568 6.406-10.235 2.843-14.99-9.191-12.278-26.441 1.962-25.64 14.348-14.59-4.142-26.105-15.84-31.342-30.35-.362-1.005-1.9-.61-1.606.462 4.445 16.18 17.504 28.852 33.392 32.912 3.653 16.99 25.293 20.204 39.6 20.775 18.632.748 37.93-3.34 52.525-15.83l-2.361 8.397c-.361 1.281 1.414 2.527 2.313 1.37a492.99 492.99 0 0016.756-22.86c.837-1.214-.736-2.637-1.884-1.949z" fill="#5879E8"/></svg>