<svg width="130" height="118" viewBox="0 0 130 118" fill="none" xmlns="http://www.w3.org/2000/svg"><path d="M85.535 43.673c-9.895-7.837-23.26-13.782-35.901-11.698-1.67 9.742.096 20.724 2.526 29.47C56.24 76.14 70.72 93.286 88.063 86.05c19.537-8.153 9.468-32.875-2.528-42.376zM62.903 85.736C48.941 75.79 42.06 52.168 45.243 33.043c-1.136.37-2.266.79-3.38 1.312-28.445 13.353-26.352 49.292-22.823 75.12.043.315.008.6-.063.867l.455.44c.651-5.084 1.95-9.862 4.043-14.764 1.042-2.442 5.016-1.143 3.968 1.312-2.523 5.907-3.892 11.66-4.248 18.092-.107 1.925-2.391 2.41-3.651 1.23A207.327 207.327 0 01.798 96.624c-1.705-2.08 1.239-4.619 3.131-2.729l10.234 10.22c-2.98-25.518-2.689-55.023 21.081-70.735 3.36-2.221 7.049-3.74 10.917-4.647 1.477-5.708 3.946-10.85 7.514-14.867 21.769-24.508 57.411-10.594 75.198 10.87 1.334 1.608-1.009 3.658-2.446 2.132-17.92-19.073-54.393-34.846-72.542-6.46-1.486 2.322-2.565 4.879-3.342 7.575 20.65-2.363 44.637 11.208 51.105 30.498 8.34 24.864-17.966 42.057-38.745 27.255z" fill="#8DD9E5"/><path d="M85.535 43.673c-9.895-7.837-23.26-13.782-35.901-11.698-1.67 9.742.096 20.724 2.526 29.47C56.24 76.14 70.72 93.286 88.063 86.05c19.537-8.153 9.468-32.875-2.528-42.376zM62.903 85.736C48.941 75.79 42.06 52.168 45.243 33.043c-1.136.37-2.266.79-3.38 1.312-28.445 13.353-26.352 49.292-22.823 75.12.043.315.008.6-.063.867l.455.44c.651-5.084 1.95-9.862 4.043-14.764 1.042-2.442 5.016-1.143 3.968 1.312-2.523 5.907-3.892 11.66-4.248 18.092-.107 1.925-2.391 2.41-3.651 1.23A207.327 207.327 0 01.798 96.624c-1.705-2.08 1.239-4.619 3.131-2.729l10.234 10.22c-2.98-25.518-2.689-55.023 21.081-70.735 3.36-2.221 7.049-3.74 10.917-4.647 1.477-5.708 3.946-10.85 7.514-14.867 21.769-24.508 57.411-10.594 75.198 10.87 1.334 1.608-1.009 3.658-2.446 2.132-17.92-19.073-54.393-34.846-72.542-6.46-1.486 2.322-2.565 4.879-3.342 7.575 20.65-2.363 44.637 11.208 51.105 30.498 8.34 24.864-17.966 42.057-38.745 27.255z" fill="#5879E8"/></svg>