<svg width="143" height="23" viewBox="0 0 143 23" fill="none" xmlns="http://www.w3.org/2000/svg"><path d="M7.803 18.4c-2.433 0-4.32-.605-5.66-1.814C.82 15.376.115 13.672.026 11.474.01 11.014 0 10.264 0 9.226c0-1.057.009-1.823.026-2.3C.115 4.745.83 3.05 2.17 1.84 3.527.613 5.405 0 7.803 0c1.57 0 2.936.264 4.1.792 1.164.511 2.063 1.218 2.698 2.121.635.886.97 1.891 1.005 3.016v.051a.454.454 0 01-.185.358.573.573 0 01-.37.128h-2.513c-.212 0-.37-.043-.476-.128-.106-.085-.194-.247-.265-.486-.282-1.073-.75-1.823-1.402-2.249-.652-.443-1.525-.664-2.618-.664-2.54 0-3.862 1.371-3.968 4.114-.018.46-.027 1.167-.027 2.121 0 .955.01 1.679.027 2.173.106 2.743 1.428 4.114 3.968 4.114 1.093 0 1.966-.221 2.618-.664.67-.443 1.138-1.193 1.402-2.25.053-.238.132-.4.238-.485.123-.085.291-.128.503-.128h2.512c.16 0 .291.052.397.154a.41.41 0 01.159.383 5.472 5.472 0 01-1.005 3.041c-.635.886-1.534 1.593-2.698 2.121-1.164.511-2.53.767-4.1.767zm11.284-.256a.624.624 0 01-.45-.178.582.582 0 01-.185-.435V.613c0-.187.062-.332.185-.434a.623.623 0 01.45-.179h2.195c.194 0 .344.06.45.179a.532.532 0 01.185.434v16.918c0 .17-.062.315-.185.435-.106.119-.256.178-.45.178h-2.195zm12.263.256c-1.957 0-3.517-.545-4.681-1.636-1.146-1.107-1.755-2.657-1.825-4.65l-.027-.64.027-.638c.088-1.943.705-3.467 1.851-4.575C27.86 5.154 29.411 4.6 31.35 4.6c2.081 0 3.686.613 4.815 1.84 1.146 1.227 1.719 2.862 1.719 4.907v.536c0 .17-.062.316-.185.435a.657.657 0 01-.476.179H28.44v.204c.035.937.3 1.73.794 2.377.51.63 1.207.945 2.09.945 1.04 0 1.877-.391 2.512-1.175.159-.188.282-.307.37-.358.106-.051.256-.077.45-.077h2.275c.158 0 .29.051.396.154a.388.388 0 01.186.332c0 .409-.256.894-.768 1.457-.493.545-1.207 1.022-2.142 1.43-.935.41-2.02.614-3.253.614zm2.937-8.05v-.077c0-1.005-.265-1.814-.794-2.427-.511-.614-1.226-.92-2.143-.92-.916 0-1.63.306-2.142.92-.511.613-.767 1.422-.767 2.427v.077h5.846zm10.781 7.794c-.265 0-.468-.05-.609-.153a1.291 1.291 0 01-.344-.485L39.17 5.648l-.053-.23c0-.154.053-.281.159-.384a.592.592 0 01.423-.178h2.143c.335 0 .564.161.688.485l3.517 8.97 3.518-8.97c.053-.12.133-.23.238-.332a.682.682 0 01.45-.153h2.17c.14 0 .264.06.37.178a.48.48 0 01.184.384.752.752 0 01-.026.23l-4.973 11.858a1.29 1.29 0 01-.343.485c-.142.102-.344.153-.609.153h-1.957zm15.756.256c-1.958 0-3.518-.545-4.682-1.636-1.147-1.107-1.755-2.657-1.825-4.65l-.027-.64.027-.638c.088-1.943.705-3.467 1.851-4.575C57.332 5.154 58.884 4.6 60.824 4.6c2.08 0 3.685.613 4.814 1.84 1.146 1.227 1.719 2.862 1.719 4.907v.536c0 .17-.062.316-.185.435a.657.657 0 01-.476.179h-8.782v.204c.035.937.3 1.73.793 2.377.512.63 1.208.945 2.09.945 1.04 0 1.878-.391 2.513-1.175.159-.188.282-.307.37-.358.106-.051.256-.077.45-.077h2.275c.158 0 .29.051.396.154a.388.388 0 01.186.332c0 .409-.256.894-.767 1.457-.494.545-1.209 1.022-2.143 1.43-.935.41-2.02.614-3.253.614zm2.936-8.05v-.077c0-1.005-.265-1.814-.794-2.427-.511-.614-1.226-.92-2.142-.92-.917 0-1.632.306-2.143.92-.511.613-.767 1.422-.767 2.427v.077h5.846zm7.04 7.794a.623.623 0 01-.45-.178.582.582 0 01-.185-.435V5.494c0-.17.061-.315.185-.434a.584.584 0 01.45-.204h2.142a.66.66 0 01.476.178c.123.12.185.273.185.46v1.048A4.17 4.17 0 0175.19 5.29c.653-.29 1.393-.434 2.222-.434h1.084c.195 0 .344.06.45.178a.533.533 0 01.185.435v1.84c0 .17-.061.315-.185.434-.106.12-.255.18-.45.18h-2.063c-.828 0-1.48.23-1.957.69-.476.46-.714 1.09-.714 1.89v7.028c0 .17-.062.315-.185.435a.657.657 0 01-.476.178h-2.302zm11.347 0a.623.623 0 01-.45-.178.581.581 0 01-.185-.435V.894c0-.187.053-.34.158-.46a.657.657 0 01.477-.178h7.67c2.063 0 3.598.443 4.603 1.328 1.022.87 1.534 2.062 1.534 3.578 0 .886-.23 1.644-.688 2.275-.44.613-.96 1.056-1.56 1.329.74.323 1.357.851 1.851 1.584.511.733.767 1.567.767 2.504 0 1.585-.555 2.863-1.666 3.834-1.094.97-2.636 1.456-4.63 1.456h-7.882zM89.34 7.59c.917 0 1.614-.213 2.09-.639.476-.426.714-.997.714-1.712 0-.733-.238-1.295-.714-1.687-.476-.409-1.173-.613-2.09-.613h-4.153V7.59h4.153zm.265 7.846c.917 0 1.63-.239 2.142-.716.511-.494.767-1.116.767-1.866 0-.766-.255-1.388-.767-1.865-.511-.494-1.225-.741-2.142-.741h-4.418v5.188h4.418zm13.717 2.964c-.9 0-1.729-.17-2.487-.511-.74-.358-1.331-.835-1.772-1.431a3.326 3.326 0 01-.635-1.968c0-1.159.485-2.096 1.455-2.811.97-.716 2.301-1.201 3.994-1.457l3.624-.51v-.538c0-.75-.194-1.311-.582-1.686-.388-.375-1.014-.562-1.878-.562-.582 0-1.058.11-1.428.332a4.394 4.394 0 00-.847.613 20.55 20.55 0 01-.423.435c-.071.204-.203.306-.397.306h-2.037a.645.645 0 01-.423-.153.542.542 0 01-.159-.409c.018-.426.23-.911.635-1.457.424-.545 1.067-1.013 1.931-1.405.864-.392 1.922-.588 3.174-.588 2.081 0 3.598.451 4.55 1.354s1.428 2.087 1.428 3.553v8.024c0 .17-.062.315-.185.435-.106.119-.256.178-.45.178h-2.142a.626.626 0 01-.45-.178.583.583 0 01-.185-.435v-.997c-.388.546-.943.997-1.666 1.355-.706.34-1.587.511-2.645.511zm.899-2.428c.97 0 1.763-.306 2.38-.92.618-.613.926-1.508.926-2.683v-.537l-2.645.41c-1.023.152-1.798.4-2.327.74-.512.341-.768.758-.768 1.252 0 .546.239.972.715 1.278.476.307 1.049.46 1.719.46zm17.835 2.428c-1.816 0-3.227-.605-4.232-1.814v.945a.58.58 0 01-.185.435c-.106.119-.256.178-.45.178H115.1a.624.624 0 01-.45-.178.583.583 0 01-.185-.435V.613c0-.187.062-.332.185-.434A.624.624 0 01115.1 0h2.248c.194 0 .344.06.45.179a.534.534 0 01.185.434v5.674c1.005-1.125 2.363-1.687 4.073-1.687 1.781 0 3.148.562 4.1 1.687.952 1.124 1.464 2.58 1.534 4.37.018.204.027.477.027.817 0 .358-.009.64-.027.844-.07 1.84-.582 3.314-1.534 4.42-.952 1.108-2.319 1.662-4.1 1.662zm-.978-2.734c1.904 0 2.918-1.133 3.042-3.4.017-.17.026-.425.026-.766 0-.34-.009-.596-.026-.767-.124-2.266-1.138-3.399-3.042-3.399-.988 0-1.746.307-2.275.92-.511.597-.785 1.32-.82 2.173l-.026.97.026.997c.053.92.326 1.696.82 2.326.494.63 1.252.946 2.275.946zm11.5 7.334a.516.516 0 01-.37-.153.482.482 0 01-.159-.358c0-.153.036-.29.106-.409l2.063-4.728-5.078-11.576a.934.934 0 01-.106-.358.614.614 0 01.185-.384.509.509 0 01.397-.178h2.142c.335 0 .574.161.715.485l3.518 8.357 3.623-8.357c.141-.324.379-.485.714-.485h2.117c.141 0 .264.05.37.153a.455.455 0 01.185.358.996.996 0 01-.106.409l-7.485 16.738c-.159.324-.406.486-.741.486h-2.09z" fill="#122659"/></svg>